<svg width="14" height="18" viewBox="0 0 14 18" fill="none" xmlns="http://www.w3.org/2000/svg">
<path d="M6.53357 0.999868L6.53357 14.7359L2.30423 10.8319C1.96623 10.5199 1.41157 10.5199 1.07357 10.8319C0.735568 11.1439 0.735568 11.6479 1.07357 11.9599L6.7849 17.2319C7.1229 17.5439 7.6689 17.5439 8.0069 17.2319L13.7182 11.9599C14.0562 11.6479 14.0562 11.1439 13.7182 10.8319C13.3802 10.5199 12.8342 10.5199 12.4962 10.8319L8.2669 14.7359C8.2669 14.7359 8.2669 1.43987 8.2669 0.999868C8.2669 0.559868 7.8769 0.199869 7.40023 0.199869C6.92357 0.199869 6.53357 0.559868 6.53357 0.999868Z" fill="white"/>
</svg>
