<svg width="20" height="14" viewBox="0 0 20 14" fill="none" xmlns="http://www.w3.org/2000/svg">
<path d="M1.33332 7.86652L16.214 7.86652L11.9847 12.0959C11.6467 12.4339 11.6467 12.9885 11.9847 13.3265C12.3227 13.6645 12.8687 13.6645 13.2067 13.3265L18.918 7.61519C19.256 7.27719 19.256 6.73119 18.918 6.39319L13.2067 0.681856C12.8687 0.343856 12.3227 0.343856 11.9847 0.681856C11.6467 1.01986 11.6467 1.56586 11.9847 1.90386L16.214 6.13319C16.214 6.13319 1.80999 6.13318 1.33333 6.13318C0.85666 6.13318 0.46666 6.52318 0.46666 6.99985C0.46666 7.47652 0.856659 7.86652 1.33332 7.86652Z" fill="white"/>
</svg>
