<svg width="216" height="75" viewBox="0 0 216 75" fill="none" xmlns="http://www.w3.org/2000/svg">
<path d="M200.787 16.2238C193.816 14.9407 188.181 14.0547 182.748 12.822C179.536 12.0833 175.903 11.1696 177.047 5.41332C188.255 6.46931 199.267 6.53661 210.076 9.21803C214.546 10.3059 215.909 13.0199 215.295 17.6629C215.019 19.3597 214.586 21.0269 214 22.6431C211.232 31.0391 208.43 39.4278 205.594 47.8092C204.654 50.586 203.418 53.5741 199.734 52.6367C196.431 51.8129 195.512 48.8072 195.966 45.7944C196.575 42.4372 197.377 39.1178 198.368 35.8527C199.232 33.4388 199.63 30.8824 199.54 28.3194C198.798 29.1121 198.056 29.9048 197.302 30.7105C189.128 39.4432 184.078 40.6165 172.927 36.3717C164.032 33.1085 156.06 27.7379 149.693 20.7202C148.163 19.0195 146.657 17.2927 145.028 15.6708C138.407 9.01021 133.513 9.57371 129.167 17.8912C127.097 22.2688 125.321 26.7792 123.848 31.3925C118.826 45.0983 111.454 49.1692 97.2619 45.5154C86.6688 42.9236 76.7895 37.992 68.3499 31.0829C65.7948 28.8044 63.0457 26.7534 60.1339 24.9533C55.3574 22.2378 52.5552 23.1988 50.9795 28.4528C49.5388 33.9768 48.4302 39.5823 47.6597 45.2392C46.9724 49.1792 46.8558 53.2391 45.8631 57.0884C43.7636 65.1433 38.9462 71.02 30.4431 72.5205C23.9951 73.6654 17.4673 74.3048 10.9191 74.4327C8.63051 74.6288 6.34354 74.0329 4.44092 72.7447C2.5383 71.4565 1.13549 69.5541 0.467234 67.3561C2.66547 67.1706 4.43753 67.0496 6.20878 66.9033C13.0039 66.3153 19.8465 66.0154 26.5918 65.0637C33.337 64.112 36.3992 59.6155 37.222 53.3156C37.937 47.9387 38.1583 42.4898 39.0381 37.1453C39.6729 32.3478 40.8162 27.6317 42.4486 23.0766C46.2732 13.4914 55.23 10.4896 64.208 15.6747C68.3407 18.2225 72.2472 21.1203 75.8843 24.3362C83.2119 30.3018 91.8253 34.4827 101.044 36.5487C108.702 38.4013 111.318 36.7788 114.213 29.5418C116.525 23.7094 118.312 17.6046 121.33 12.1648C123.503 8.52001 126.514 5.44611 130.113 3.19799C136.279 -0.783026 142.758 0.113053 148.213 5.04838C151.176 7.73939 153.892 10.6898 156.33 13.8643C161.978 21.1992 169.735 25.2655 178.07 28.5319C182.04 30.1023 185.551 30.025 188.845 26.4278C192.139 22.8307 196.018 20.1716 200.787 16.2238Z" fill="#9CA3AF"/>
</svg>
