<svg width="109" height="217" viewBox="0 0 109 217" fill="none" xmlns="http://www.w3.org/2000/svg">
<path d="M92.0967 194.17C91.1191 194.597 90.7511 194.905 90.3894 194.889C61.6492 193.746 37.073 183.309 17.8628 161.544C13.0178 155.973 9.5698 149.329 7.80382 142.161C5.78615 134.705 6.24068 126.794 9.0993 119.616C11.9579 112.438 17.0666 106.378 23.6594 102.345C30.7217 97.9333 38.1862 94.8182 46.806 95.3308C49.1771 98.4625 51.3175 101.705 53.8655 104.571C55.7304 106.83 58.0654 108.656 60.708 109.921C63.3505 111.185 66.2374 111.859 69.1676 111.896C73.8047 111.966 77.3779 110.089 78.1938 107.038C78.6798 105.349 78.5816 103.545 77.9151 101.919C77.2486 100.292 76.0528 98.9385 74.5211 98.076C70.3163 95.4889 65.8801 93.2977 61.2698 91.5305C58.2268 90.5322 55.1124 89.7659 51.9533 89.2384C46.6936 74.8771 56.1602 62.2716 74.3709 59.5486C75.8855 61.1414 77.4077 62.9446 79.138 64.5114C85.3621 70.1486 92.5742 73.1621 101.069 71.7358C104.252 71.1913 107.413 69.9075 108.403 66.1946C109.179 63.3501 107.329 59.9946 103.631 57.7722C97.7419 54.2346 91.1633 53.0812 84.4188 52.6618C82.0722 52.5197 79.7365 52.5095 77.4598 52.467C68.5359 30.533 79.0602 5.81229 101.815 4.08312C100.831 2.67531 100.281 1.27559 99.3851 0.815205C98.1551 0.435054 96.8336 0.473178 95.6272 0.923618C84.6346 4.51175 75.9356 10.7531 72.2014 22.2629C69.5238 30.7637 68.9881 39.7931 70.6421 48.5485C70.863 49.822 71.0592 51.0783 71.2028 52.3787C71.2276 52.5644 71.0785 52.7684 70.8718 53.3717C69.8051 53.8322 68.4273 54.5088 67.0783 54.9857C49.9315 61.1413 43.9853 69.9226 44.6741 88.6824L39.3002 89.7048C28.767 91.4139 19.0976 96.5702 11.8093 104.365C-0.527221 117.497 -3.13851 135.717 4.76114 152.496C9.01339 161.51 15.192 169.482 22.8615 175.848C41.5664 191.501 62.9126 200.179 87.5547 200.023C88.8428 200.024 90.1373 200.036 91.4265 200.067C91.6133 200.072 91.783 200.271 92.6754 200.809C89.2071 203.916 85.1948 205.634 81.3393 207.527C77.4838 209.42 73.6754 211.119 69.5205 213.053C70.1775 214.186 71.1891 215.071 72.3995 215.573C73.6098 216.074 74.9517 216.163 76.2182 215.827C78.9837 215.492 81.6913 214.785 84.2674 213.725C90.8291 210.444 97.3564 207.045 103.577 203.169C108.496 200.052 108.398 196.535 103.851 193.658C94.1915 187.56 84.4896 181.516 74.7455 175.525C72.9831 174.587 71.1639 173.76 69.2985 173.048C68.4616 176.845 70.4848 178.191 72.2858 179.551C78.7294 184.271 85.1494 189.005 92.0967 194.17ZM102.84 64.6547C94.1262 68.0085 86.1717 65.6 81.8787 58.4475C89.3232 59.0817 96.3006 59.4504 102.84 64.6547ZM72.9895 104.781C65.1433 107.002 59.2934 104.041 56.0735 96.4393C62.5717 97.6981 68.4807 99.141 72.9895 104.781Z" fill="#9CA3AF"/>
</svg>
